<svg width="209" height="45" viewBox="0 0 209 45" fill="none" xmlns="http://www.w3.org/2000/svg">
<circle cx="22.5" cy="22.5" r="22" stroke="#229799"/>
<circle cx="105.5" cy="22.5" r="22" stroke="#229799"/>
<circle cx="186.5" cy="22.5" r="22" stroke="#229799"/>
<path d="M31.0938 17.0312H13.125V14.6875C13.125 14.4803 13.0427 14.2816 12.8962 14.1351C12.7497 13.9886 12.551 13.9062 12.3438 13.9062C12.1365 13.9062 11.9378 13.9886 11.7913 14.1351C11.6448 14.2816 11.5625 14.4803 11.5625 14.6875V30.3125C11.5625 30.5197 11.6448 30.7184 11.7913 30.8649C11.9378 31.0114 12.1365 31.0938 12.3438 31.0938C12.551 31.0938 12.7497 31.0114 12.8962 30.8649C13.0427 30.7184 13.125 30.5197 13.125 30.3125V27.1875H33.4375V30.3125C33.4375 30.5197 33.5198 30.7184 33.6663 30.8649C33.8128 31.0114 34.0115 31.0938 34.2188 31.0938C34.426 31.0938 34.6247 31.0114 34.7712 30.8649C34.9177 30.7184 35 30.5197 35 30.3125V20.9375C35 19.9015 34.5884 18.9079 33.8559 18.1754C33.1233 17.4428 32.1298 17.0312 31.0938 17.0312ZM13.125 18.5938H20.1562V25.625H13.125V18.5938ZM21.7188 25.625V18.5938H31.0938C31.7154 18.5938 32.3115 18.8407 32.751 19.2802C33.1906 19.7198 33.4375 20.3159 33.4375 20.9375V25.625H21.7188Z" fill="#229799"/>
<path d="M99 34.8125C99 35.0721 98.923 35.3258 98.7788 35.5417C98.6346 35.7575 98.4296 35.9258 98.1898 36.0251C97.9499 36.1244 97.686 36.1504 97.4314 36.0998C97.1768 36.0491 96.943 35.9241 96.7594 35.7406C96.5759 35.557 96.4509 35.3232 96.4002 35.0686C96.3496 34.814 96.3756 34.5501 96.4749 34.3102C96.5742 34.0704 96.7425 33.8654 96.9583 33.7212C97.1742 33.577 97.4279 33.5 97.6875 33.5C98.0356 33.5 98.3694 33.6383 98.6156 33.8844C98.8617 34.1306 99 34.4644 99 34.8125ZM101.188 30C100.928 30 100.674 30.077 100.458 30.2212C100.242 30.3654 100.074 30.5704 99.9749 30.8102C99.8756 31.0501 99.8496 31.314 99.9002 31.5686C99.9509 31.8232 100.076 32.057 100.259 32.2406C100.443 32.4241 100.677 32.5491 100.931 32.5998C101.186 32.6504 101.45 32.6244 101.69 32.5251C101.93 32.4258 102.135 32.2575 102.279 32.0417C102.423 31.8258 102.5 31.5721 102.5 31.3125C102.5 30.9644 102.362 30.6306 102.116 30.3844C101.869 30.1383 101.536 30 101.188 30ZM94.1875 30C93.9279 30 93.6742 30.077 93.4583 30.2212C93.2425 30.3654 93.0742 30.5704 92.9749 30.8102C92.8756 31.0501 92.8496 31.314 92.9002 31.5686C92.9509 31.8232 93.0759 32.057 93.2594 32.2406C93.443 32.4241 93.6768 32.5491 93.9314 32.5998C94.186 32.6504 94.4499 32.6244 94.6898 32.5251C94.9296 32.4258 95.1346 32.2575 95.2788 32.0417C95.423 31.8258 95.5 31.5721 95.5 31.3125C95.5 30.9644 95.3617 30.6306 95.1156 30.3844C94.8694 30.1383 94.5356 30 94.1875 30ZM97.6875 26.5C97.4279 26.5 97.1742 26.577 96.9583 26.7212C96.7425 26.8654 96.5742 27.0704 96.4749 27.3102C96.3756 27.5501 96.3496 27.814 96.4002 28.0686C96.4509 28.3232 96.5759 28.557 96.7594 28.7406C96.943 28.9241 97.1768 29.0491 97.4314 29.0998C97.686 29.1504 97.9499 29.1244 98.1898 29.0251C98.4296 28.9258 98.6346 28.7575 98.7788 28.5417C98.923 28.3258 99 28.0721 99 27.8125C99 27.4644 98.8617 27.1306 98.6156 26.8844C98.3694 26.6383 98.0356 26.5 97.6875 26.5ZM120 13.375C120 13.6071 119.908 13.8296 119.744 13.9937C119.58 14.1578 119.357 14.25 119.125 14.25H115.987L112.941 17.2972L110.572 31.1648C110.519 31.4817 110.379 31.7777 110.169 32.0205C109.958 32.2633 109.685 32.4435 109.379 32.5413C109.073 32.6391 108.746 32.6508 108.434 32.5751C108.121 32.4994 107.836 32.3392 107.609 32.112L96.8902 21.3933C96.6627 21.1659 96.5022 20.8802 96.4265 20.5676C96.3508 20.255 96.3627 19.9275 96.4609 19.6212C96.5591 19.3149 96.7399 19.0416 96.9833 18.8313C97.2267 18.621 97.5233 18.4819 97.8406 18.4292L111.703 16.0591L115.006 12.7559C115.087 12.6747 115.184 12.6103 115.29 12.5664C115.396 12.5225 115.51 12.4999 115.625 12.5H119.125C119.357 12.5 119.58 12.5922 119.744 12.7563C119.908 12.9204 120 13.1429 120 13.375ZM111.054 17.9458L98.125 20.1562L108.844 30.875L111.054 17.9458Z" fill="#229799"/>
<path d="M186 31.8269C185.498 31.8269 185.073 31.6534 184.726 31.3066C184.379 30.9597 184.206 30.535 184.206 30.0326C184.206 29.5301 184.379 29.1051 184.726 28.7574C185.073 28.4097 185.498 28.2363 186 28.2371C186.502 28.2378 186.927 28.4113 187.274 28.7574C187.621 29.1035 187.794 29.5282 187.794 30.0314C187.794 30.5346 187.621 30.9597 187.274 31.3066C186.927 31.6534 186.502 31.8269 186 31.8269ZM179.408 25.9084L178.215 24.7021C179.227 23.6894 180.396 22.8961 181.719 22.3221C183.043 21.7481 184.471 21.4614 186.003 21.4622C187.536 21.463 188.963 21.7508 190.284 22.3256C191.605 22.9003 192.772 23.6968 193.785 24.7149L192.592 25.9084C191.736 25.0528 190.744 24.382 189.617 23.8959C188.489 23.4098 187.283 23.1667 186 23.1667C184.717 23.1667 183.511 23.4098 182.383 23.8959C181.256 24.382 180.264 25.0528 179.408 25.9084ZM174.45 20.9501L173.256 19.7566C174.881 18.1232 176.777 16.8321 178.944 15.8832C181.111 14.9343 183.463 14.4611 186 14.4634C188.537 14.4657 190.889 14.9398 193.056 15.8856C195.223 16.8313 197.119 18.1221 198.743 19.7577L197.55 20.9501C196.053 19.4528 194.318 18.2815 192.344 17.4361C190.371 16.5906 188.256 16.1675 186 16.1667C183.744 16.1659 181.629 16.5891 179.657 17.4361C177.684 18.2831 175.949 19.4544 174.45 20.9501Z" fill="#229799"/>
</svg>
